<svg xmlns="http://www.w3.org/2000/svg" width="430" height="430" style="width:100%;height:100%;transform:translate3d(0,0,0);content-visibility:visible" viewBox="0 0 430 430"><defs><clipPath id="a"><path d="M0 0h430v430H0z"/></clipPath><clipPath id="e"><path d="M0 0h430v430H0z"/></clipPath><clipPath id="d"><path d="M0 0h430v430H0z"/></clipPath><clipPath id="c"><path d="M0 0h430v430H0z"/></clipPath><clipPath id="b"><path d="M0 0h430v430H0z"/></clipPath></defs><g fill="none" clip-path="url(#a)"><g clip-path="url(#b)" style="display:none"><path class="primary" style="display:none"/><path class="secondary" style="display:none"/><path class="secondary" style="display:none"/></g><g clip-path="url(#c)" style="display:none"><path class="primary" style="display:none"/><path class="secondary" style="display:none"/><path class="secondary" style="display:none"/></g><g stroke-linecap="round" stroke-linejoin="round" stroke-width="3.36" clip-path="url(#d)" style="display:block"><path stroke="#0F2045" d="M35.537 36.105c-19.526 19.526-51.184 19.526-70.71 0s-19.526-51.184 0-70.71 51.184-19.526 70.71 0 19.526 51.184 0 70.71" class="primary" style="display:block" transform="translate(215 215)scale(3.36996)"/><path stroke="#3D30F9" d="M.182-.21v-34.361M.182.75l17.869-17.869" class="secondary" style="display:block" transform="translate(215 215)scale(3.36996)"/></g><g clip-path="url(#e)" style="display:none"><path class="primary" style="display:none"/><path class="secondary" style="display:none"/><path class="secondary" style="display:none"/></g></g></svg>